<svg width="32" height="33" viewBox="0 0 32 33" fill="none" xmlns="http://www.w3.org/2000/svg">
<path d="M6 0.15625H27C28.625 0.15625 30 1.53125 30 3.15625V23.1562C30 24.4688 29.125 25.5938 28 26.0312V30.1562H29C29.5 30.1562 30 30.6562 30 31.1562C30 31.7188 29.5 32.1562 29 32.1562H6C3.75 32.1562 2 30.4062 2 28.1562V4.15625C2 1.96875 3.75 0.15625 6 0.15625ZM26 26.1562H6C4.875 26.1562 4 27.0938 4 28.1562C4 29.2812 4.875 30.1562 6 30.1562H26V26.1562ZM6 24.1562H8V2.15625H6C4.875 2.15625 4 3.09375 4 4.15625V24.7188C4.5625 24.4062 5.25 24.1562 6 24.1562ZM10 24.1562H27C27.5 24.1562 28 23.7188 28 23.1562V3.15625C28 2.65625 27.5 2.15625 27 2.15625H10V24.1562ZM13 9.15625C13 8.65625 13.4375 8.15625 14 8.15625H24C24.5 8.15625 25 8.65625 25 9.15625C25 9.71875 24.5 10.1562 24 10.1562H14C13.4375 10.1562 13 9.71875 13 9.15625ZM13 15.1562C13 14.6562 13.4375 14.1562 14 14.1562H24C24.5 14.1562 25 14.6562 25 15.1562C25 15.7188 24.5 16.1562 24 16.1562H14C13.4375 16.1562 13 15.7188 13 15.1562Z" fill="#ABCF6F"/>
</svg>
