<svg width="33" height="33" viewBox="0 0 33 33" fill="none" xmlns="http://www.w3.org/2000/svg">
<path d="M28.375 3.03125C27.625 2.21875 26.3125 2.21875 25.5625 3.03125L23.9375 4.71875L27.5 8.28125L29.125 6.59375C29.9375 5.84375 29.9375 4.53125 29.125 3.78125L28.375 3.03125ZM13.625 15.1562C13.3125 15.4062 13.125 15.7812 13.0625 16.1562L12.25 19.9688L16.125 19.1562C16.5 19.0938 16.8125 18.9062 17.125 18.6562L26.0625 9.65625L22.5 6.15625L13.625 15.1562ZM24.125 1.65625C25.6875 0.03125 28.25 0.03125 29.8125 1.59375L30.5625 2.34375C32.125 3.90625 32.125 6.46875 30.5625 8.03125L18.5 20.0312C18 20.5938 17.25 20.9688 16.5 21.1562L11.1875 22.2812C10.875 22.3438 10.5 22.2188 10.25 21.9688C10 21.7188 9.9375 21.4062 10 21.0938L11.125 15.7188C11.25 14.9688 11.625 14.2812 12.1875 13.7188L24.125 1.65625ZM18.8125 3.46875C17.875 3.28125 16.9375 3.15625 16 3.15625C8.8125 3.15625 3 9.03125 3 16.1562C3 23.3438 8.8125 29.1562 16 29.1562C16.5 29.1562 17 29.6562 17 30.1562C17 30.7188 16.5 31.1562 16 31.1562C7.6875 31.1562 1 24.4688 1 16.1562C1 7.90625 7.6875 1.15625 16 1.15625C17.5 1.15625 19 1.40625 20.4375 1.84375L18.8125 3.46875ZM30.3125 11.7812C30.75 13.1562 31 14.6562 31 16.1562C31 21.1562 26.9375 25.1562 22 25.1562C21.1875 25.1562 20.4375 25.0938 19.75 24.9062C19.1875 24.7812 18.875 24.2188 19 23.6562C19.125 23.1562 19.6875 22.8438 20.25 22.9688C20.75 23.0938 21.375 23.1562 22 23.1562C25.8125 23.1562 29 20.0312 29 16.1562C29 15.2188 28.875 14.3438 28.6875 13.4062L30.3125 11.7812Z" fill="#ABCF6F"/>
</svg>
