<svg width="32" height="33" viewBox="0 0 32 33" fill="none" xmlns="http://www.w3.org/2000/svg">
<path d="M11.9375 2.65625H20C21.3125 2.65625 22.4375 3.53125 22.875 4.71875L23.5 6.65625H28C30.1875 6.65625 32 8.46875 32 10.6562V26.6562C32 28.9062 30.1875 30.6562 28 30.6562H4C1.75 30.6562 0 28.9062 0 26.6562V10.6562C0 8.46875 1.75 6.65625 4 6.65625H8.4375L9.0625 4.71875C9.5 3.53125 10.625 2.65625 11.9375 2.65625ZM10.9375 5.34375L10.0625 8.03125C9.9375 8.40625 9.5625 8.65625 9.125 8.65625H4C2.875 8.65625 2 9.59375 2 10.6562V26.6562C2 27.7812 2.875 28.6562 4 28.6562H28C29.0625 28.6562 30 27.7812 30 26.6562V10.6562C30 9.59375 29.0625 8.65625 28 8.65625H22.8125C22.375 8.65625 22 8.40625 21.875 7.96875L21 5.34375C20.8125 4.96875 20.4375 4.65625 20 4.65625H11.9375C11.5 4.65625 11.125 4.96875 10.9375 5.34375ZM16 25.6562C13.4375 25.6562 11.1875 24.3438 9.9375 22.1562C8.625 20.0312 8.625 17.3438 9.9375 15.1562C11.1875 13.0312 13.4375 11.6562 16 11.6562C18.5 11.6562 20.75 13.0312 22 15.1562C23.3125 17.3438 23.3125 20.0312 22 22.1562C20.75 24.3438 18.5 25.6562 16 25.6562ZM11 18.6562C11 20.4688 11.9375 22.0938 13.5 23.0312C15 23.9062 16.9375 23.9062 18.5 23.0312C20 22.0938 21 20.4688 21 18.6562C21 16.9062 20 15.2812 18.5 14.3438C16.9375 13.4688 15 13.4688 13.5 14.3438C11.9375 15.2812 11 16.9062 11 18.6562Z" fill="#ABCF6F"/>
</svg>
