<svg width="33" height="33" viewBox="0 0 33 33" fill="none" xmlns="http://www.w3.org/2000/svg">
<path d="M26.7314 4.83142H6.73145C5.60645 4.83142 4.73145 5.76892 4.73145 6.83142V26.8314C4.73145 27.9564 5.60645 28.8314 6.73145 28.8314H26.7314C27.7939 28.8314 28.7314 27.9564 28.7314 26.8314V6.83142C28.7314 5.76892 27.7939 4.83142 26.7314 4.83142ZM6.73145 2.83142H26.7314C28.9189 2.83142 30.7314 4.64392 30.7314 6.83142V26.8314C30.7314 29.0814 28.9189 30.8314 26.7314 30.8314H6.73145C4.48145 30.8314 2.73145 29.0814 2.73145 26.8314V6.83142C2.73145 4.64392 4.48145 2.83142 6.73145 2.83142ZM7.91895 10.2064C8.29395 9.76892 8.91895 9.76892 9.35645 10.0814L16.3564 16.0814C16.6064 16.2689 16.7314 16.5814 16.7314 16.8939C16.7314 17.1439 16.6064 17.4564 16.3564 17.6439L9.35645 23.6439C8.91895 23.9564 8.29395 23.9564 7.91895 23.5189C7.60645 23.0814 7.60645 22.4564 8.04395 22.0814L14.1689 16.8314L8.04395 11.6439C7.60645 11.2689 7.60645 10.6439 7.91895 10.2064ZM15.7314 22.8314H25.7314C26.2314 22.8314 26.7314 23.3314 26.7314 23.8314C26.7314 24.3939 26.2314 24.8314 25.7314 24.8314H15.7314C15.1689 24.8314 14.7314 24.3939 14.7314 23.8314C14.7314 23.3314 15.1689 22.8314 15.7314 22.8314Z" fill="#ABCF6F"/>
</svg>
