<svg width="32" height="33" viewBox="0 0 32 33" fill="none" xmlns="http://www.w3.org/2000/svg">
<path d="M5 0.65625C5.5 0.65625 6 1.15625 6 1.65625C6 2.71875 6.375 3.65625 7.0625 4.40625L8.25 5.59375C9.375 6.65625 10 8.15625 10 9.65625C10 10.2188 9.5 10.6562 9 10.6562C8.4375 10.6562 8 10.2188 8 9.65625C8 8.65625 7.5625 7.71875 6.875 6.96875L5.6875 5.78125C4.5625 4.71875 4 3.21875 4 1.65625C4 1.15625 4.4375 0.65625 5 0.65625ZM2 14.6562V26.6562C2 28.9062 3.75 30.6562 6 30.6562H18C20.1875 30.6562 22 28.9062 22 26.6562V14.6562H21H2ZM24 14.6562V24.6562H25C27.75 24.6562 30 22.4688 30 19.6562C30 16.9062 27.75 14.6562 25 14.6562H24ZM24 26.6562C24 29.9688 21.3125 32.6562 18 32.6562H6C2.6875 32.6562 0 29.9688 0 26.6562V14.6562C0 13.5938 0.875 12.6562 2 12.6562H21H22H25C28.8125 12.6562 32 15.8438 32 19.6562C32 23.5312 28.8125 26.6562 25 26.6562H24ZM14 1.65625C14 2.71875 14.375 3.65625 15.0625 4.40625L16.25 5.59375C17.375 6.65625 18 8.15625 18 9.65625C18 10.2188 17.5 10.6562 17 10.6562C16.4375 10.6562 16 10.2188 16 9.65625C16 8.65625 15.5625 7.71875 14.875 6.96875L13.6875 5.78125C12.5625 4.71875 12 3.21875 12 1.65625C12 1.15625 12.4375 0.65625 13 0.65625C13.5 0.65625 14 1.15625 14 1.65625Z" fill="#ABCF6F"/>
</svg>
