<svg width="32" height="33" viewBox="0 0 32 33" fill="none" xmlns="http://www.w3.org/2000/svg">
<path d="M7 0.15625H8C8.5 0.15625 9 0.65625 9 1.15625C9 1.71875 8.5 2.15625 8 2.15625V4.53125C9.6875 1.90625 12.625 0.15625 16 0.15625C21 0.15625 25.125 4.09375 25.4375 9.09375L26 17.0938C26 17.8438 25.5 18.5312 24.75 18.6562L17.625 20.0938C16.625 20.2812 15.375 20.2812 14.3125 20.0938L7.1875 18.6562C6.4375 18.5312 5.9375 17.8438 6 17.0938V16.8438C6 16.7812 6 16.7188 6 16.6562V1.15625C6 0.65625 6.4375 0.15625 7 0.15625ZM8.3125 12.2812L8 16.7812L12.375 17.6562C12.0625 15.8438 11 14.4062 9.8125 13.3438C9.25 12.9062 8.75 12.5312 8.3125 12.2812ZM14.4375 18.0938H14.75C14.8125 18.1562 14.875 18.1562 15 18.1562V10.2188H8.6875C8.75 10.2188 8.8125 10.2812 8.875 10.2812C9.5 10.6562 10.3125 11.1562 11.125 11.8438C12.625 13.2188 14.25 15.2188 14.4375 18.0938ZM17 18.1562C17.0625 18.1562 17.125 18.1562 17.1875 18.0938H17.5C17.6875 15.2188 19.3125 13.1562 20.8125 11.8438C21.625 11.1562 22.4375 10.6562 23.0625 10.2812C23.125 10.2812 23.1875 10.2188 23.25 10.1562H17V18.1562ZM19.5625 17.6562L23.9375 16.7812L23.625 12.2812C23.1875 12.5312 22.6875 12.9062 22.125 13.4062C20.9375 14.4062 19.875 15.8438 19.5625 17.6562ZM23.3125 8.15625C22.625 4.71875 19.5625 2.15625 16 2.15625C12.375 2.15625 9.3125 4.71875 8.625 8.15625H16H23.3125ZM10.375 24.1562C7 24.1562 4.1875 26.8438 4 30.1562H10.5625L14.9375 25.8438C15.5 25.2188 16.4375 25.2188 17.0625 25.8438L21.375 30.1562H27.9375C27.75 26.8438 25 24.1562 21.5625 24.1562H10.375ZM16 27.5938L13.375 30.1562H18.5625L16 27.5938ZM3.5625 32.1562C2.6875 32.1562 2 31.4688 2 30.5938C2 25.9688 5.75 22.1562 10.375 22.1562H21.5625C26.1875 22.1562 30 25.9688 30 30.5938C30 31.4688 29.25 32.1562 28.375 32.1562H21H11H3.5625Z" fill="#ABCF6F"/>
</svg>
