<svg width="32" height="33" viewBox="0 0 32 33" fill="none" xmlns="http://www.w3.org/2000/svg">
<path d="M8 2.65625C6.875 2.65625 6 3.59375 6 4.65625V10.6562H4V4.65625C4 2.46875 5.75 0.65625 8 0.65625H22.25C23.3125 0.65625 24.3125 1.09375 25.0625 1.84375L26.8125 3.59375C27.5625 4.34375 28 5.34375 28 6.40625V10.6562H26V6.40625C26 5.90625 25.75 5.40625 25.375 5.03125L23.625 3.28125C23.25 2.90625 22.75 2.65625 22.25 2.65625H8ZM2 14.6562V18.6562H4H28H30V14.6562H22.8125L22 15.5312C21.25 16.2812 20.1875 16.6562 19.125 16.6562H12.8125C11.75 16.6562 10.75 16.2812 10 15.5312L11.375 14.0938C11.75 14.4688 12.25 14.7188 12.8125 14.7188H19.125C19.6875 14.7188 20.1875 14.4688 20.5625 14.0938L21.375 13.2812C21.75 12.9062 22.25 12.6562 22.8125 12.6562H30C31.0625 12.6562 32 13.5938 32 14.6562V18.6562C32 19.7812 31.0625 20.6562 30 20.6562V28.6562C30 30.9062 28.1875 32.6562 26 32.6562H6C3.75 32.6562 2 30.9062 2 28.6562V20.6562C0.875 20.6562 0 19.7812 0 18.6562V14.6562C0 13.5938 0.875 12.6562 2 12.6562H9.125C9.6875 12.6562 10.1875 12.9062 10.5625 13.2812L11.375 14.0938L10 15.5312L9.125 14.6562H2ZM4 20.6562V28.6562C4 29.7812 4.875 30.6562 6 30.6562H26C27.0625 30.6562 28 29.7812 28 28.6562V20.6562H4ZM10 26.6562H22C22.5 26.6562 23 27.1562 23 27.6562C23 28.2188 22.5 28.6562 22 28.6562H10C9.4375 28.6562 9 28.2188 9 27.6562C9 27.1562 9.4375 26.6562 10 26.6562ZM9 23.6562C9 24.2188 8.5 24.6562 8 24.6562C7.4375 24.6562 7 24.2188 7 23.6562C7 23.1562 7.4375 22.6562 8 22.6562C8.5 22.6562 9 23.1562 9 23.6562ZM12 24.6562C11.4375 24.6562 11 24.2188 11 23.6562C11 23.1562 11.4375 22.6562 12 22.6562C12.5 22.6562 13 23.1562 13 23.6562C13 24.2188 12.5 24.6562 12 24.6562ZM17 23.6562C17 24.2188 16.5 24.6562 16 24.6562C15.4375 24.6562 15 24.2188 15 23.6562C15 23.1562 15.4375 22.6562 16 22.6562C16.5 22.6562 17 23.1562 17 23.6562ZM20 24.6562C19.4375 24.6562 19 24.2188 19 23.6562C19 23.1562 19.4375 22.6562 20 22.6562C20.5 22.6562 21 23.1562 21 23.6562C21 24.2188 20.5 24.6562 20 24.6562ZM25 23.6562C25 24.2188 24.5 24.6562 24 24.6562C23.4375 24.6562 23 24.2188 23 23.6562C23 23.1562 23.4375 22.6562 24 22.6562C24.5 22.6562 25 23.1562 25 23.6562Z" fill="#ABCF6F"/>
</svg>
